# xmcd CD database file
#
# Track frame offsets:
#	150
#	18347
#	42867
#	69756
#	89061
#	109268
#	128089
#	144744
#	155206
#	174772
#	189627
#	217396
#	255190
#	270183
#
# Disc length: 3813 seconds
#
# Revision: 7
# Processed by: cddbd v1.5.1PL0 Copyright (c) Steve Scherf et al.
# Submitted via: CDex 1.51
#
DISCID=c30ee30e
DTITLE=Raimundo Amador - Noche de Flamenco y Blues
DYEAR=1998
DGENRE=Flameco&Blues
TTITLE0=Pa mojar con Gran Wyoming
TTITLE1=Candela
TTITLE2=Pata Palo con Kiko Veneno
TTITLE3=Hoy no estoy pa nadie
TTITLE4=Ay que gustito pa mis orejas
TTITLE5=Blues de la frontera
TTITLE6=Camaron con Remedios Amaya
TTITLE7=Tio Diego
TTITLE8=Pasa la vida con Charo Manzano
TTITLE9=Amor en vano con Juan Peroo
TTITLE10=Bolleré con B.B. King
TTITLE11=Gitano de Temporá
TTITLE12=Little Wing
TTITLE13=Yo me quedo en Sevilla con Antonio Carmona
EXTD=YEAR: 1998
EXTT0=Con Gran Wyoming
EXTT1=
EXTT2=Con Kiko Veneno
EXTT3=
EXTT4=
EXTT5=
EXTT6=Con Remedios Amaya
EXTT7=
EXTT8=Con Charo Manzano
EXTT9=Con Juan Perro
EXTT10=Con B.B. King
EXTT11=
EXTT12=
EXTT13=Con Antonio Carmona
PLAYORDER=
